<svg xmlns="http://www.w3.org/2000/svg" width="24" height="24" viewBox="-3 -3 30 30"><g fill="#46448E" fill-opacity="0" stroke="#46448E" stroke-linecap="round" stroke-linejoin="round" stroke-width="1"><path d="M3.5 5c0 -0.83 0.67 -1.5 1.5 -1.5c0.83 0 1.5 0.67 1.5 1.5c0 0.83 -0.67 1.5 -1.5 1.5c-0.83 0 -1.5 -0.67 -1.5 -1.5Z" fill-opacity="1"/><path d="M3.5 12c0 -0.83 0.67 -1.5 1.5 -1.5c0.83 0 1.5 0.67 1.5 1.5c0 0.83 -0.67 1.5 -1.5 1.5c-0.83 0 -1.5 -0.67 -1.5 -1.5Z" fill-opacity="1"/><path d="M3.5 19c0 -0.83 0.67 -1.5 1.5 -1.5c0.83 0 1.5 0.67 1.5 1.5c0 0.83 -0.67 1.5 -1.5 1.5c-0.83 0 -1.5 -0.67 -1.5 -1.5Z" fill-opacity="1"/><path d="M9.5 5c0 -0.83 0.67 -1.5 1.5 -1.5h8c0.83 0 1.5 0.67 1.5 1.5c0 0.83 -0.67 1.5 -1.5 1.5h-8c-0.83 0 -1.5 -0.67 -1.5 -1.5Z" fill-opacity="1"/><path d="M9.5 12c0 -0.83 0.67 -1.5 1.5 -1.5h8c0.83 0 1.5 0.67 1.5 1.5c0 0.83 -0.67 1.5 -1.5 1.5h-8c-0.83 0 -1.5 -0.67 -1.5 -1.5Z" fill-opacity="1"/><path d="M9.5 19c0 -0.83 0.67 -1.5 1.5 -1.5h8c0.83 0 1.5 0.67 1.5 1.5c0 0.83 -0.67 1.5 -1.5 1.5h-8c-0.83 0 -1.5 -0.67 -1.5 -1.5Z" fill-opacity="1"/></g></svg>
